<?xml version="1.0" standalone="no"?><!DOCTYPE svg PUBLIC "-//W3C//DTD SVG 1.1//EN" "http://www.w3.org/Graphics/SVG/1.1/DTD/svg11.dtd"><svg t="1752382240458" class="icon" viewBox="0 0 1024 1024" version="1.1" xmlns="http://www.w3.org/2000/svg" p-id="1543" xmlns:xlink="http://www.w3.org/1999/xlink" width="200" height="200"><path d="M0 0m368.64 0l286.72 0q368.64 0 368.64 368.64l0 286.72q0 368.64-368.64 368.64l-286.72 0q-368.64 0-368.64-368.64l0-286.72q0-368.64 368.64-368.64Z" fill="#3F7BFA" p-id="1544"></path><path d="M693.8624 246.5792c10.8544 10.24 19.6608 18.6368 26.2144 25.3952 6.7584 6.7584 11.6736 12.4928 15.1552 17.2032 3.4816 4.7104 5.7344 8.8064 6.5536 12.0832 0.6144 3.2768 1.2288 6.144 1.2288 8.6016v9.8304h-90.9312c-4.096 0-7.7824-1.6384-10.8544-4.7104a40.1408 40.1408 0 0 1-7.5776-10.6496c-2.048-4.096-3.6864-8.3968-4.7104-12.6976-1.024-4.3008-1.4336-7.5776-1.4336-10.0352v-76.1856h1.8432c3.2768 0 6.5536 0.4096 10.0352 1.4336 3.4816 1.024 7.5776 3.072 12.0832 5.9392 4.5056 2.8672 10.0352 6.9632 16.7936 12.288 6.7584 5.3248 15.36 12.4928 25.6 21.504z m-105.0624 35.6352c0 8.192 1.2288 16.5888 3.6864 25.3952 2.4576 8.8064 6.3488 16.9984 11.6736 24.576 5.3248 7.5776 12.0832 13.9264 20.2752 18.8416 8.192 4.7104 17.8176 7.3728 28.8768 7.3728h89.7024v346.3168c0 12.0832-2.4576 22.7328-7.168 32.1536-4.7104 9.216-10.8544 17.408-18.6368 23.9616-7.7824 6.5536-16.384 11.6736-26.0096 15.36-9.216 3.6864-18.6368 5.3248-27.4432 5.3248H361.472c-7.7824 0-16.384-2.048-25.6-6.5536-9.216-4.5056-17.8176-10.4448-25.8048-17.8176s-14.5408-15.7696-19.8656-25.1904c-5.3248-9.4208-7.9872-19.2512-7.9872-29.4912V284.672c0-8.6016 1.8432-17.6128 5.7344-26.8288 3.8912-9.216 9.216-17.6128 15.9744-25.3952s14.5408-14.336 23.1424-19.456c8.6016-5.12 17.6128-7.5776 27.0336-7.5776h234.7008v76.8z m38.7072 383.3856c10.6496 0 19.6608-3.8912 27.0336-11.4688 7.3728-7.5776 11.0592-16.5888 11.0592-27.2384s-3.6864-19.6608-11.0592-27.0336c-7.3728-7.3728-16.384-11.0592-27.0336-11.0592H397.1072c-10.6496 0-19.6608 3.6864-27.0336 11.0592-7.5776 7.3728-11.0592 16.384-11.0592 27.0336s3.4816 19.6608 11.0592 27.2384c7.3728 7.5776 16.384 11.4688 27.0336 11.4688h230.4z m38.0928-191.6928c0-10.6496-3.6864-19.8656-11.0592-27.4432-7.3728-7.5776-16.384-11.264-27.0336-11.264H397.1072c-10.6496 0-19.6608 3.6864-27.0336 11.264-7.5776 7.5776-11.0592 16.7936-11.0592 27.4432 0 10.6496 3.4816 19.6608 11.0592 27.0336 7.3728 7.3728 16.384 11.0592 27.0336 11.0592h230.4c10.6496 0 19.6608-3.6864 27.0336-11.0592 7.3728-7.3728 11.0592-16.384 11.0592-27.0336z" fill="#FFFFFF" p-id="1545"></path></svg>